<svg width="622" height="187" viewBox="0 0 622 187" fill="none" xmlns="http://www.w3.org/2000/svg">
<path d="M133.445 87.009C133.627 89.0147 133.752 91.0381 133.752 93.0926C133.752 91.0381 133.627 89.0162 133.445 87.009Z" fill="white"/>
<path d="M35.155 86.6589C35.155 86.6589 16.7301 154.545 90.579 155.136C113.749 146.511 130.823 125.364 133.41 99.8688C133.589 98.1053 133.642 96.3064 133.682 94.5045C133.69 94.0304 133.753 93.5696 133.753 93.0925C133.753 91.0396 133.628 89.0147 133.446 87.009C113.935 163.815 27.6225 133.731 35.155 86.6589Z" fill="white"/>
<path d="M73.3394 61.4607C73.3394 61.4607 4.58153 42.2589 5.63903 117.232C9.16361 126.292 14.6334 134.468 21.6624 141.183C21.9578 141.463 22.2636 141.727 22.5619 142.002C24.5501 143.835 26.6483 145.545 28.8448 147.122C29.186 147.366 29.5065 147.635 29.8492 147.873C32.1726 149.461 34.5953 150.9 37.1025 152.179C37.8306 152.554 38.5794 152.897 39.3179 153.247C41.4754 154.263 43.6867 155.16 45.942 155.935C46.4959 156.124 47.0246 156.361 47.5859 156.536C50.2896 157.363 53.044 158.014 55.8317 158.486C56.675 158.634 57.5272 158.758 58.3809 158.876C61.2729 159.293 64.1893 159.52 67.1111 159.554C67.2234 159.554 67.3312 159.571 67.4434 159.571C69.647 159.571 71.8226 159.453 73.9686 159.242C-3.17836 140.844 26.145 54.5781 73.3394 61.4607Z" fill="white"/>
<path d="M100.14 97.0153C100.14 97.0153 116.407 28.4346 43.1826 31.4978C18.6283 41.197 1.24609 65.0881 1.24609 93.0866C1.26893 96.1017 1.49641 99.1117 1.92697 102.096C17.3375 24.506 105.132 49.6348 100.14 97.0153Z" fill="white"/>
<path d="M64.9812 126.528C64.9812 126.528 133.859 135.519 129.547 70.033C120.173 44.8259 95.969 26.8337 67.4994 26.8337C63.468 26.8493 59.4465 27.2315 55.4844 27.9754C132.233 37.3969 112.285 127.198 64.9812 126.528Z" fill="white"/>
<path d="M86.6216 93.094C86.6216 96.7646 85.5331 100.353 83.4936 103.405C81.4542 106.457 78.5555 108.835 75.1642 110.24C71.7728 111.644 68.0411 112.011 64.4411 111.295C60.8411 110.578 57.5344 108.81 54.9393 106.214C52.3441 103.618 50.5771 100.311 49.8617 96.7108C49.1463 93.1106 49.5147 89.379 50.9202 85.9881C52.3257 82.5972 54.7052 79.6993 57.7578 77.6608C60.8104 75.6224 64.399 74.535 68.0696 74.5361C72.9906 74.5373 77.7096 76.4931 81.1887 79.9733C84.6677 83.4534 86.622 88.173 86.6216 93.094Z" fill="white"/>
<path d="M166.549 147V58.9738H179.753V80.6282C180.223 79.1024 181.103 77.1072 182.394 74.6424C183.802 72.0603 185.798 69.4782 188.38 66.8961C190.962 64.314 194.189 62.1427 198.063 60.3822C202.053 58.5043 206.748 57.5653 212.147 57.5653H213.027V70.7693H211.443C204.87 70.7693 199.178 72.5885 194.366 76.2269C189.671 79.748 186.032 84.384 183.45 90.135C180.986 95.7687 179.753 101.813 179.753 108.268V147H166.549ZM264.088 148.408C255.168 148.408 247.363 146.413 240.673 142.423C233.983 138.315 228.76 132.798 225.004 125.874C221.366 118.949 219.547 111.32 219.547 102.987C219.547 94.5364 221.307 86.9074 224.828 80.1001C228.349 73.1753 233.396 67.7177 239.969 63.7272C246.541 59.6193 254.288 57.5653 263.208 57.5653C272.245 57.5653 279.991 59.6193 286.446 63.7272C293.019 67.7177 298.066 73.1753 301.587 80.1001C305.108 86.9074 306.869 94.5364 306.869 102.987V108.268H233.103C233.807 113.433 235.45 118.186 238.032 122.529C240.732 126.754 244.311 130.158 248.771 132.74C253.231 135.204 258.395 136.437 264.264 136.437C270.484 136.437 275.707 135.087 279.933 132.388C284.158 129.571 287.444 125.991 289.791 121.648H304.228C301.176 129.512 296.305 135.967 289.615 141.014C283.043 145.944 274.534 148.408 264.088 148.408ZM233.279 95.9448H293.136C291.963 88.4332 288.794 82.154 283.63 77.1072C278.465 72.0603 271.658 69.5369 263.208 69.5369C254.757 69.5369 247.95 72.0603 242.785 77.1072C237.739 82.154 234.57 88.4332 233.279 95.9448ZM323.002 181.858V58.9738H336.206V73.058C339.492 68.2459 343.718 64.4901 348.882 61.7906C354.163 58.9738 360.443 57.5653 367.719 57.5653C376.287 57.5653 383.74 59.6193 390.078 63.7272C396.533 67.7177 401.522 73.1753 405.043 80.1001C408.564 86.9074 410.324 94.5364 410.324 102.987C410.324 111.32 408.564 118.949 405.043 125.874C401.522 132.798 396.533 138.315 390.078 142.423C383.74 146.413 376.287 148.408 367.719 148.408C360.443 148.408 354.163 147 348.882 144.183C343.718 141.249 339.492 137.434 336.206 132.74V181.858H323.002ZM365.959 136.437C372.532 136.437 378.107 134.911 382.684 131.859C387.379 128.808 390.958 124.759 393.423 119.712C395.888 114.548 397.12 108.973 397.12 102.987C397.12 96.8837 395.888 91.3087 393.423 86.2619C390.958 81.2151 387.379 77.1658 382.684 74.1143C378.107 71.0627 372.532 69.5369 365.959 69.5369C359.504 69.5369 353.987 71.0627 349.41 74.1143C344.833 77.1658 341.37 81.2151 339.023 86.2619C336.676 91.3087 335.502 96.8837 335.502 102.987C335.502 108.973 336.676 114.548 339.023 119.712C341.37 124.759 344.833 128.808 349.41 131.859C353.987 134.911 359.504 136.437 365.959 136.437ZM427.705 147V23.7633H440.909V147H427.705ZM463.282 44.1853V26.9322H477.542V44.1853H463.282ZM463.81 147V58.9738H477.014V147H463.81ZM509.421 147V70.5932H491.464V58.9738H509.421V27.4604H522.625V58.9738H542.871V70.5932H522.625V147H509.421Z" fill="white"/>
<g clip-path="url(#clip0)">
<path fill-rule="evenodd" clip-rule="evenodd" d="M570 68.5H596.001V94.5002H622V120.5H596V94.5003H570V68.5ZM596 120.501H570V146.501H596V120.501Z" fill="#FFC700"/>
</g>
<defs>
<clipPath id="clip0">
<rect width="52" height="106" fill="white" transform="translate(570 40.5)"/>
</clipPath>
</defs>
</svg>
