<svg id="svg" version="1.1" xmlns="http://www.w3.org/2000/svg" xmlns:xlink="http://www.w3.org/1999/xlink" width="400" height="400" viewBox="0, 0, 400,400"><g id="svgg"><path id="path0" d="M318.800 191.250 C 314.510 193.003,310.055 194.802,308.900 195.247 L 306.800 196.057 306.800 244.629 C 306.800 275.965,306.939 293.200,307.191 293.200 C 307.804 293.200,315.377 290.317,315.600 289.998 C 315.710 289.841,317.386 289.152,319.325 288.466 C 324.279 286.714,325.979 285.481,326.858 283.000 C 327.776 280.408,328.012 187.974,327.100 188.031 C 326.825 188.048,323.090 189.497,318.800 191.250 " stroke="none" fill="#fcd473" fill-rule="evenodd"></path><path id="path1" d="M192.400 82.972 C 186.627 83.880,179.985 85.735,178.586 86.831 C 178.358 87.009,175.046 88.336,171.225 89.779 C 167.405 91.222,164.081 92.567,163.839 92.767 C 163.598 92.967,160.430 94.249,156.800 95.615 C 153.170 96.980,150.014 98.246,149.786 98.426 C 149.558 98.607,146.246 99.936,142.425 101.379 C 138.605 102.822,135.281 104.163,135.039 104.359 C 134.798 104.555,132.080 105.657,129.000 106.809 C 125.920 107.961,122.680 109.253,121.800 109.682 C 120.920 110.111,117.158 111.618,113.439 113.032 C 109.721 114.446,106.481 115.763,106.239 115.959 C 105.998 116.155,103.280 117.257,100.200 118.409 C 97.120 119.561,93.880 120.852,93.000 121.279 C 92.120 121.706,88.520 123.138,85.000 124.461 C 81.480 125.785,78.214 127.114,77.742 127.416 C 77.270 127.717,75.920 128.315,74.742 128.745 C 68.961 130.853,65.965 132.025,63.594 133.104 C 62.168 133.754,58.480 135.228,55.400 136.379 C 52.320 137.530,49.440 138.694,49.000 138.966 C 48.560 139.238,46.400 140.138,44.200 140.964 C 37.133 143.620,35.009 144.466,34.600 144.788 C 34.380 144.961,31.230 146.217,27.600 147.579 C 23.970 148.941,20.640 150.285,20.200 150.566 C 19.760 150.847,18.350 151.467,17.067 151.945 C 12.279 153.728,10.800 155.225,10.800 158.292 C 10.800 161.448,12.656 163.054,19.000 165.388 C 21.200 166.197,23.900 167.289,25.000 167.813 C 26.100 168.337,29.880 169.852,33.400 171.179 C 36.920 172.506,40.137 173.789,40.550 174.030 C 41.358 174.503,49.450 177.680,52.400 178.682 C 53.390 179.019,54.290 179.425,54.400 179.585 C 54.510 179.745,57.840 181.100,61.800 182.597 C 65.760 184.093,69.198 185.471,69.441 185.658 C 69.683 185.846,72.743 187.081,76.241 188.403 C 79.738 189.724,83.065 191.067,83.633 191.386 C 84.201 191.705,87.272 192.944,90.456 194.139 C 93.641 195.335,97.406 196.852,98.823 197.512 C 100.240 198.171,102.210 198.984,103.200 199.318 C 106.064 200.285,111.308 202.363,112.400 202.964 C 112.950 203.266,115.920 204.459,119.000 205.614 C 122.080 206.769,125.751 208.238,127.157 208.878 C 128.563 209.519,132.163 210.949,135.157 212.057 C 138.151 213.165,140.798 214.234,141.039 214.434 C 141.281 214.634,144.521 215.954,148.239 217.368 C 151.958 218.782,155.720 220.289,156.600 220.718 C 157.480 221.147,160.720 222.439,163.800 223.591 C 166.880 224.743,169.582 225.833,169.805 226.013 C 170.288 226.403,178.479 229.583,181.600 230.591 C 182.810 230.982,184.563 231.643,185.495 232.059 C 192.083 235.000,214.122 234.980,217.776 232.029 C 218.009 231.841,219.100 231.389,220.200 231.024 C 223.549 229.915,232.987 226.250,233.200 225.976 C 233.310 225.835,236.190 224.688,239.600 223.429 C 243.010 222.169,246.176 220.897,246.634 220.603 C 247.093 220.308,250.693 218.862,254.634 217.389 C 258.576 215.916,261.987 214.560,262.216 214.376 C 262.445 214.192,265.595 212.926,269.216 211.563 C 272.837 210.200,275.890 208.963,276.000 208.813 C 276.110 208.663,278.000 207.864,280.200 207.037 C 287.686 204.225,290.599 203.072,291.016 202.756 C 291.245 202.583,294.395 201.326,298.016 199.964 C 301.637 198.601,304.660 197.332,304.733 197.143 C 304.807 196.954,305.067 196.800,305.312 196.800 C 305.557 196.800,306.397 196.358,307.178 195.817 C 307.960 195.276,311.120 193.855,314.200 192.658 C 317.280 191.461,321.398 189.823,323.351 189.018 C 325.305 188.213,327.127 187.640,327.402 187.745 C 327.955 187.958,333.266 186.135,333.593 185.620 C 333.707 185.441,334.610 185.018,335.600 184.680 C 339.376 183.391,348.120 179.999,348.550 179.656 C 348.798 179.459,351.970 178.180,355.600 176.815 C 359.230 175.449,362.380 174.187,362.600 174.010 C 362.820 173.833,364.980 172.933,367.400 172.010 C 375.709 168.843,377.001 168.326,377.400 168.014 C 377.620 167.842,380.320 166.756,383.400 165.601 C 391.203 162.674,392.001 161.988,391.999 158.222 C 391.996 155.106,391.054 153.917,387.535 152.589 C 385.921 151.980,383.790 151.083,382.800 150.595 C 381.810 150.108,378.210 148.664,374.800 147.387 C 371.390 146.109,368.510 144.941,368.400 144.790 C 368.290 144.638,365.237 143.400,361.616 142.037 C 357.995 140.674,354.845 139.417,354.616 139.244 C 354.387 139.070,352.670 138.344,350.800 137.630 C 348.930 136.916,346.950 136.148,346.400 135.925 C 345.850 135.701,344.140 135.064,342.600 134.508 C 341.060 133.953,339.710 133.367,339.600 133.207 C 339.490 133.046,336.437 131.800,332.816 130.437 C 329.195 129.074,326.045 127.817,325.816 127.644 C 325.399 127.328,322.486 126.175,315.000 123.363 C 312.800 122.536,310.910 121.737,310.800 121.587 C 310.690 121.437,308.080 120.372,305.000 119.221 C 301.920 118.070,298.050 116.528,296.400 115.794 C 294.750 115.060,290.881 113.530,287.801 112.394 C 284.722 111.257,282.112 110.195,282.001 110.032 C 281.891 109.869,279.010 108.691,275.600 107.414 C 272.190 106.137,268.684 104.732,267.808 104.291 C 266.933 103.850,263.357 102.425,259.863 101.125 C 256.368 99.824,253.125 98.513,252.655 98.213 C 252.185 97.912,250.000 97.011,247.800 96.209 C 241.667 93.975,241.584 93.942,238.600 92.580 C 237.060 91.877,233.280 90.360,230.200 89.208 C 227.120 88.057,224.398 86.951,224.151 86.751 C 223.441 86.175,218.117 84.425,214.400 83.545 C 209.975 82.498,197.488 82.173,192.400 82.972 M206.120 100.177 C 210.438 100.476,220.779 103.307,221.600 104.415 C 221.710 104.564,224.763 105.800,228.384 107.163 C 232.005 108.526,235.155 109.797,235.384 109.986 C 235.613 110.176,238.770 111.430,242.400 112.774 C 246.030 114.117,249.630 115.552,250.400 115.962 C 251.170 116.372,254.590 117.752,258.000 119.028 C 261.410 120.305,264.290 121.458,264.400 121.590 C 264.629 121.865,266.272 122.522,273.000 125.028 C 275.640 126.012,278.442 127.159,279.228 127.578 C 280.013 127.998,283.433 129.371,286.828 130.630 C 290.222 131.889,293.090 133.031,293.200 133.169 C 293.310 133.307,295.200 134.110,297.400 134.954 C 299.600 135.799,302.840 137.043,304.600 137.720 C 306.360 138.397,308.160 139.167,308.600 139.431 C 309.040 139.695,312.190 140.952,315.600 142.224 C 319.010 143.495,321.890 144.644,322.000 144.777 C 322.110 144.910,324.000 145.706,326.200 146.545 C 328.400 147.385,331.550 148.596,333.200 149.238 C 334.850 149.879,336.425 150.403,336.700 150.402 C 336.975 150.401,337.200 150.557,337.200 150.748 C 337.200 150.940,340.215 152.222,343.900 153.598 C 353.485 157.177,354.506 158.458,349.400 160.501 C 347.860 161.117,345.880 161.973,345.000 162.404 C 344.120 162.835,340.700 164.206,337.400 165.452 C 334.100 166.698,331.340 167.870,331.267 168.058 C 331.193 168.246,330.966 168.400,330.761 168.400 C 330.192 168.400,316.662 173.625,316.157 174.039 C 315.913 174.240,314.293 174.923,312.557 175.558 C 310.821 176.193,307.825 177.290,305.900 177.994 C 303.975 178.699,302.400 179.418,302.400 179.591 C 302.400 179.765,301.995 179.996,301.500 180.106 C 300.217 180.390,287.961 185.137,287.437 185.553 C 287.197 185.744,283.985 187.029,280.300 188.409 C 276.615 189.789,273.600 191.071,273.600 191.259 C 273.600 191.447,273.375 191.599,273.100 191.598 C 272.825 191.597,271.250 192.119,269.600 192.759 C 267.950 193.399,264.890 194.587,262.800 195.398 C 260.710 196.210,258.820 197.010,258.600 197.177 C 258.380 197.344,255.410 198.517,252.000 199.785 C 248.590 201.052,245.419 202.327,244.953 202.619 C 244.487 202.911,242.597 203.716,240.753 204.408 C 234.543 206.738,230.203 208.472,229.800 208.782 C 229.580 208.952,226.340 210.223,222.600 211.607 C 218.860 212.991,215.710 214.247,215.600 214.399 C 213.613 217.143,189.554 217.210,187.620 214.477 C 187.499 214.306,184.790 213.205,181.600 212.029 C 178.410 210.853,175.080 209.541,174.200 209.115 C 173.320 208.688,169.558 207.182,165.839 205.768 C 162.121 204.354,158.881 203.033,158.639 202.833 C 158.170 202.444,145.534 197.600,144.988 197.600 C 144.809 197.600,144.379 197.356,144.031 197.058 C 143.684 196.759,140.340 195.375,136.600 193.982 C 132.860 192.588,129.710 191.340,129.600 191.208 C 129.328 190.882,116.695 186.000,116.122 186.000 C 115.872 186.000,115.607 185.848,115.533 185.661 C 115.408 185.342,110.028 183.164,103.800 180.911 C 102.260 180.354,100.910 179.782,100.800 179.640 C 100.623 179.411,98.148 178.425,90.400 175.498 C 89.190 175.041,87.390 174.272,86.400 173.788 C 85.410 173.305,81.810 171.864,78.400 170.587 C 74.990 169.309,72.110 168.156,72.000 168.023 C 71.811 167.794,67.875 166.242,61.200 163.764 C 59.550 163.152,57.984 162.490,57.720 162.293 C 57.455 162.096,55.745 161.352,53.920 160.640 C 48.312 158.453,48.963 157.504,58.600 153.816 C 61.900 152.552,64.825 151.335,65.100 151.111 C 65.375 150.886,65.603 150.859,65.606 151.051 C 65.609 151.243,65.744 151.208,65.906 150.974 C 66.068 150.739,69.485 149.318,73.500 147.815 C 77.515 146.313,80.800 144.930,80.800 144.742 C 80.800 144.554,81.005 144.400,81.256 144.400 C 81.888 144.400,94.499 139.615,95.032 139.173 C 95.270 138.976,98.585 137.638,102.400 136.200 C 106.215 134.762,109.530 133.431,109.768 133.242 C 110.006 133.052,113.170 131.780,116.800 130.415 C 120.430 129.049,123.591 127.773,123.825 127.579 C 124.059 127.385,126.939 126.220,130.225 124.989 C 133.511 123.759,137.100 122.330,138.200 121.814 C 139.300 121.298,142.863 119.868,146.118 118.636 C 149.373 117.403,152.433 116.143,152.918 115.834 C 153.403 115.526,154.610 115.001,155.600 114.668 C 158.359 113.740,166.681 110.477,167.485 110.008 C 167.878 109.779,171.062 108.500,174.560 107.166 C 178.058 105.831,181.298 104.500,181.760 104.208 C 185.022 102.143,197.583 99.448,202.000 99.867 C 202.550 99.919,204.404 100.058,206.120 100.177 M76.889 245.900 C 76.992 276.362,77.049 278.709,77.719 280.200 C 79.537 284.248,82.600 287.018,87.041 288.629 C 88.514 289.163,89.921 289.769,90.169 289.975 C 90.418 290.181,93.236 291.331,96.433 292.531 C 99.630 293.731,103.406 295.249,104.823 295.905 C 106.240 296.561,109.920 298.040,113.000 299.191 C 116.080 300.343,118.780 301.431,119.001 301.609 C 119.221 301.788,122.101 302.956,125.401 304.206 C 128.700 305.457,132.480 306.978,133.800 307.588 C 135.120 308.198,138.720 309.640,141.800 310.791 C 144.880 311.943,147.580 313.028,147.800 313.203 C 148.020 313.377,151.080 314.629,154.600 315.985 C 158.120 317.341,161.900 318.866,163.000 319.375 C 164.100 319.884,167.520 321.242,170.600 322.393 C 173.680 323.544,176.380 324.628,176.600 324.803 C 176.820 324.977,179.880 326.226,183.400 327.577 C 186.920 328.929,190.340 330.275,191.000 330.570 C 196.000 332.800,211.596 332.852,214.361 330.648 C 214.670 330.401,214.940 330.257,214.961 330.326 C 215.011 330.487,214.986 330.495,222.800 327.559 C 226.430 326.194,229.490 324.947,229.600 324.786 C 229.710 324.626,230.610 324.220,231.600 323.885 C 234.581 322.876,244.171 319.115,244.600 318.786 C 244.820 318.617,247.970 317.354,251.600 315.979 C 255.230 314.603,258.290 313.347,258.400 313.186 C 258.510 313.026,259.410 312.619,260.400 312.282 C 263.558 311.209,271.542 308.059,274.114 306.872 C 275.481 306.241,277.516 305.422,278.635 305.052 C 280.833 304.325,282.497 302.866,283.175 301.074 C 283.781 299.469,283.749 284.800,283.139 284.800 C 282.544 284.800,270.740 289.225,270.158 289.666 C 269.628 290.068,260.745 293.598,260.262 293.599 C 260.075 293.600,258.635 294.206,257.062 294.946 C 255.488 295.686,251.500 297.321,248.200 298.580 C 244.900 299.838,241.840 301.091,241.400 301.366 C 240.960 301.640,237.810 302.905,234.400 304.176 C 230.990 305.448,227.840 306.706,227.400 306.972 C 226.691 307.401,224.631 308.232,218.400 310.607 C 207.048 314.933,201.057 315.438,193.400 312.712 C 187.176 310.496,179.912 307.663,178.706 306.981 C 178.104 306.640,176.484 305.938,175.106 305.421 C 173.728 304.904,171.078 303.911,169.218 303.215 C 167.359 302.518,165.379 301.691,164.818 301.377 C 163.430 300.597,151.534 296.000,150.905 296.000 C 150.627 296.000,150.400 295.847,150.400 295.659 C 150.400 295.471,147.385 294.185,143.700 292.800 C 140.015 291.416,136.640 290.052,136.200 289.769 C 135.760 289.487,132.430 288.141,128.800 286.779 C 125.170 285.417,122.006 284.148,121.769 283.960 C 121.532 283.771,118.472 282.518,114.969 281.175 C 111.466 279.831,108.240 278.507,107.800 278.232 C 107.360 277.957,105.650 277.224,104.000 276.604 C 96.149 273.653,96.638 275.535,96.400 247.400 C 96.151 218.011,97.187 220.912,85.387 216.554 C 82.534 215.500,80.110 214.536,80.000 214.411 C 79.716 214.089,77.639 213.200,77.170 213.200 C 76.916 213.200,76.817 224.713,76.889 245.900 " stroke="none" fill="#fcfcfc" fill-rule="evenodd"></path><path id="path2" d="" stroke="none" fill="#fcf4d4" fill-rule="evenodd"></path><path id="path3" d="" stroke="none" fill="#fce4ac" fill-rule="evenodd"></path><path id="path4" d="" stroke="none" fill="#fcecbc" fill-rule="evenodd"></path></g></svg>