<?xml version="1.0" encoding="UTF-8" standalone="no"?>
<!DOCTYPE svg PUBLIC "-//W3C//DTD SVG 1.1//EN" "http://www.w3.org/Graphics/SVG/1.1/DTD/svg11.dtd">
<svg width="100%" height="100%" viewBox="0 0 1080 1080" version="1.1" xmlns="http://www.w3.org/2000/svg" xmlns:xlink="http://www.w3.org/1999/xlink" xml:space="preserve" xmlns:serif="http://www.serif.com/" style="fill-rule:evenodd;clip-rule:evenodd;stroke-linejoin:round;stroke-miterlimit:2;">
    <g transform="matrix(1.30083,0,0,1.30083,-160.563,-160.538)">
        <path d="M728.019,692.551C728.019,692.551 744.462,686.058 754.914,681.932C760.005,679.921 763.35,675.004 763.35,669.53C763.35,632.975 763.35,498.415 763.35,498.415L727.915,511.711L728.019,692.551Z" style="fill:rgb(240,199,85);"/>
        <path d="M315.845,551.12C315.845,551.12 331.129,557.242 341.122,561.245C346.23,563.291 349.579,568.24 349.579,573.743L349.579,649.612C349.579,655.28 353.017,660.382 358.27,662.511C386.393,673.903 475.558,710.024 518.169,727.286C532.993,733.291 549.57,733.3 564.4,727.31C605.071,710.884 685.155,678.541 685.155,678.541L685.155,702.711C685.155,707.24 682.403,711.315 678.202,713.007C658.293,721.024 600.341,744.362 566.58,757.957C550.402,764.473 532.329,764.469 516.153,757.948C469.561,739.166 371.187,699.509 332.248,683.812C322.358,679.825 315.88,670.232 315.877,659.569C315.867,624.874 315.845,551.12 315.845,551.12Z" style="fill:white;"/>
        <path d="M854.917,452.037C854.917,452.037 657.17,541.761 574.703,579.179C552.06,589.453 526.201,590.019 503.131,580.745C429.363,551.093 263.371,484.369 204.085,460.538C200.547,459.115 198.228,455.685 198.227,451.871C198.227,448.058 200.544,444.627 204.082,443.203C263.187,419.421 428.318,352.979 501.747,323.434C524.746,314.181 550.519,314.673 573.147,324.798C656.385,362.042 857.512,452.037 857.512,452.037L820.77,447.005C820.77,447.005 638.871,378.553 566.718,351.401C548.076,344.386 527.482,344.617 509.002,352.049C447.558,376.762 306.009,433.692 269.535,448.362C268.107,448.936 267.172,450.321 267.172,451.86C267.172,453.399 268.108,454.784 269.536,455.358C306.036,470.035 447.79,527.035 509.796,551.967C528.665,559.555 549.678,559.876 568.77,552.869C641.003,526.359 820.163,460.606 820.163,460.606L854.917,452.037Z" style="fill:white;"/>
        <g transform="matrix(-1,0,0,1,1077.1,0)">
            <path d="M868.259,452.127C868.259,452.127 658.877,543.22 574.182,580.068C551.834,589.791 526.52,590.147 503.907,581.057C430.534,551.563 263.58,484.453 204.085,460.538C200.547,459.115 198.228,455.685 198.227,451.871C198.227,448.058 200.544,444.627 204.082,443.203C263.446,419.318 429.763,352.398 502.704,323.049C525.138,314.023 550.237,314.261 572.496,323.712C656.806,359.508 865.294,448.029 865.294,448.029L816.641,444.94C816.641,444.94 638.017,378.048 566.666,351.328C548.055,344.359 527.509,344.606 509.071,352.022C447.663,376.72 306.022,433.687 269.535,448.362C268.107,448.936 267.172,450.321 267.172,451.86C267.172,453.399 268.108,454.784 269.536,455.358C305.939,469.996 447.041,526.733 509.302,551.769C528.468,559.475 549.832,559.682 569.143,552.347C641.273,524.949 818.341,457.692 818.341,457.692L868.259,452.127Z" style="fill:white;"/>
        </g>
    </g>
</svg>
